<?xml version="1.0" encoding="UTF-8"?>
<svg id="Layer_1" data-name="Layer 1" xmlns="http://www.w3.org/2000/svg" viewBox="0 0 283.46 283.46">
  <defs>
    <style>
      .cls-1 {
        font-family: Montserrat-Regular, Montserrat;
        font-size: 11.23px;
      }

      .cls-1, .cls-2 {
        fill: #0c2e4e;
      }

      .cls-3 {
        letter-spacing: .24em;
      }

      .cls-4 {
        letter-spacing: -.06em;
      }

      .cls-5 {
        letter-spacing: .24em;
      }

      .cls-6 {
        letter-spacing: .25em;
      }

      .cls-7 {
        fill: #f36b2a;
      }

      .cls-7, .cls-8, .cls-2 {
        stroke-width: 0px;
      }

      .cls-8, .cls-9 {
        fill: #2296d4;
      }

      .cls-10 {
        letter-spacing: .24em;
      }

      .cls-9 {
        font-family: Montserrat-Bold, Montserrat;
        font-size: 31.85px;
        font-weight: 700;
      }

      .cls-11 {
        letter-spacing: -.08em;
      }

      .cls-12 {
        letter-spacing: -.06em;
      }
    </style>
  </defs>
  <path class="cls-7" d="M82.59,171.46c.66.06,1.33.12,1.99.17l.02-.02-2.01-.15Z"/>
  <path class="cls-8" d="M117.63,176.32c-.04.41-.11.86-.43,1.11-.4.32-.98.18-1.47.04-8.87-2.65-17.97-4.42-27.16-5.45-.56-.06-1.12-.12-1.68-.18-.69-.07-1.37-.14-2.06-.19-.08,0-.16-.01-.24-.02-.67-.06-1.33-.11-1.99-.16-.2-.02-.39-.03-.59-.04-.2-.02-.41-.03-.61-.04-.05,0-.11,0-.16-.01-.28-.02-.56-.04-.84-.05-.15,0-.31-.02-.46-.03h0c-.67-.04-1.34-.07-2.01-.1-2.99-.14-5.97-.21-8.96-.23-1.39-.59-2.78-1.17-4.17-1.76-1.1-.47-4.38-1.85-6.96-2.94.85-.09,1.69-.18,2.54-.25,7.24-.65,14.51-.7,21.77-.37.89.04,1.78.09,2.66.14.75.04,1.51.09,2.26.14.4.03.81.05,1.21.08.86.06,1.71.13,2.57.2,3.8.31,7.6.69,11.39,1.11,4.24.48,8.69.69,12.84,1.71.7.17,1.44.39,1.9.95.39.48.51,1.12.58,1.73.19,1.53.22,3.09.07,4.62Z"/>
  <path class="cls-8" d="M121,149.46c-.37.04-.73.06-1.1.06-5.32,0-9.66-4.32-9.66-9.64s3.95-9.28,8.97-9.64l-.71-7.79c-.15-1.68-1.18-3.14-2.7-3.84-2.53-1.14-5.15-1.81-7.83-2.2-.91-.14-1.83-.23-2.74-.31-.23-.02-.46-.04-.67-.06-.23,0-.46-.02-.71-.04-.23-.02-.46-.02-.69-.04-.19-.02-.37-.02-.56-.04-1.58-.1-3.16-.17-4.74-.23-.98-.04-1.97-.08-2.95-.1-.56-.02-1.14-.04-1.7-.06-.56,0-1.14-.02-1.7-.02-.58-.02-1.14-.02-1.7-.02-4.53-.04-9.04.06-13.54.29-3.1.15-6.17.37-9.22.69l-9.95,25.55c-1.02,2.62-2.02,5.23-3.05,7.83,0,0-3.59,9.24-4.96,12.73,1.64.69,3.26,1.37,4.9,2.06.27.12.52.21.79.33.31.14.79.33,1.37.58,8.77-2.37,18.05-3.16,27.29-3.26h2.72c.77,0,1.54,0,2.31.02,1.29.02,2.56.04,3.86.08,3.01.08,6,.21,8.95.35,1.37.06,2.74.12,4.13.19-.06-.19-.1-.39-.15-.58-.06-.31.14-.62.44-.67.29-.08.6.12.66.42.08.31.15.62.21.91,3.78.19,7.54.46,11.28.87,0,0,4.24.46,4.01-5.17l-.85-9.26ZM88.22,126.4l1.47-.21c.06,0,.1-.04.14-.1l.66-1.31c.06-.14.25-.14.31,0l.66,1.31c.02.06.08.1.14.1l1.47.21c.14.02.19.21.1.31l-1.06,1.02s-.06.12-.06.17l.25,1.45c.04.14-.12.25-.25.19l-1.31-.69c-.06-.02-.12-.02-.15,0l-1.31.69c-.14.06-.29-.06-.27-.19l.25-1.45c.02-.06,0-.13-.04-.17l-1.06-1.02c-.12-.1-.06-.29.1-.31ZM69,142.96l-.41.39s-.02.04-.02.06l.1.54c0,.06-.06.1-.1.08l-.5-.27h-.06l-.48.27c-.06.02-.12-.02-.1-.08l.1-.54s-.02-.06-.02-.06l-.4-.39s-.02-.12.04-.12l.54-.08s.04-.02.06-.04l.25-.5c.02-.06.1-.06.12,0l.25.5s.02.02.04.04l.56.08c.06,0,.08.08.04.12ZM83.52,155.55c0,.08-.08.14-.13.1l-.66-.35h-.08l-.66.35c-.08.04-.14-.02-.14-.1l.14-.71s-.02-.06-.04-.08l-.52-.52c-.06-.06-.02-.14.04-.15l.73-.1s.06-.04.08-.06l.33-.66c.02-.08.12-.08.15,0l.33.66.06.06.73.1c.08.02.1.1.06.15l-.54.52s-.02.04-.02.08l.13.71ZM87.49,149.11l-5.73-3.01c-.21-.12-.48-.12-.71,0l-5.73,3.01c-.58.31-1.23-.19-1.14-.81l1.1-6.38c.04-.25-.04-.52-.21-.69l-4.65-4.51c-.46-.46-.21-1.23.42-1.33l6.42-.93c.25-.04.46-.19.58-.42l2.87-5.8c.27-.58,1.1-.58,1.39,0l2.85,5.8c.12.23.33.39.6.42l6.4.93c.64.1.89.87.42,1.33l-4.63,4.51c-.19.17-.27.44-.23.69l1.1,6.38c.12.62-.56,1.12-1.14.81ZM96.65,145.37l-1.06,1.02s-.06.1-.04.15l.25,1.47c.02.13-.14.25-.27.17l-1.31-.67s-.1-.04-.15,0l-1.31.67c-.14.08-.27-.04-.25-.17l.25-1.47c0-.06-.02-.12-.06-.15l-1.06-1.02c-.1-.12-.04-.29.1-.31l1.47-.21c.06,0,.12-.04.14-.1l.66-1.31c.06-.13.25-.13.31,0l.66,1.31c.04.06.08.1.13.1l1.47.21c.15.02.19.19.1.31ZM102.95,116.99c0-.31.25-.54.56-.54h.02c.31,0,.56.25.54.56,0,.52-.02,1.1-.02,1.75-.02.31-.27.54-.58.54s-.56-.25-.56-.56c.02-.66.02-1.23.04-1.75ZM102.9,120.48c0-.31.25-.56.56-.56.31.02.56.27.56.58,0,.56-.02,1.14-.02,1.74,0,.31-.25.56-.56.56h-.02c-.31,0-.56-.25-.54-.56,0-.62,0-1.2.02-1.75ZM102.86,123.97c0-.31.25-.56.56-.56s.56.25.56.58v1.74c0,.31-.25.56-.56.56-.33,0-.58-.25-.58-.56.02-.6.02-1.18.02-1.75ZM103.42,126.9c.31,0,.56.25.56.56v1.75c0,.31-.25.56-.56.56s-.56-.25-.56-.56c0-.6-.02-1.18-.02-1.75,0-.31.25-.56.58-.56ZM102.86,130.97c0-.31.25-.58.56-.58h.02c.31,0,.56.25.56.56,0,.58,0,1.16.02,1.74,0,.33-.25.58-.56.58s-.56-.25-.58-.56c0-.58,0-1.18-.02-1.74ZM102.92,134.46c0-.31.23-.58.56-.58.29-.02.56.25.56.56.02.58.02,1.16.04,1.74.02.31-.23.58-.54.58h-.02c-.31,0-.56-.25-.56-.54-.02-.6-.02-1.18-.04-1.75ZM102.99,137.95c0-.31.23-.56.56-.58.31,0,.56.25.56.54.02.58.04,1.16.06,1.75.02.31-.23.56-.54.58h-.02c-.31,0-.54-.25-.56-.54-.02-.6-.04-1.18-.06-1.75ZM103.11,141.44c0-.31.23-.58.54-.58h.04c.29,0,.54.23.56.54.02.58.04,1.16.08,1.74,0,.31-.23.58-.54.6h-.04c-.29,0-.54-.25-.56-.54-.02-.58-.06-1.18-.08-1.75ZM103.28,144.95c-.02-.33.21-.58.52-.6.31-.02.58.21.6.52.04.6.06,1.18.1,1.74.02.33-.21.58-.52.6h-.04c-.29,0-.54-.21-.56-.52-.04-.58-.08-1.16-.1-1.74ZM103.49,148.44c-.02-.31.21-.58.52-.6.31-.04.58.19.6.52.04.58.08,1.16.14,1.74.02.31-.21.58-.52.6h-.04c-.29,0-.54-.21-.56-.52-.06-.58-.1-1.16-.14-1.74ZM103.76,151.93c-.02-.31.21-.6.52-.62.31-.02.58.19.62.5.04.6.1,1.18.15,1.74.04.31-.19.58-.5.62h-.06c-.27,0-.52-.21-.56-.5-.06-.58-.12-1.16-.17-1.74ZM104.36,157.16c-.08-.56-.15-1.14-.23-1.74-.04-.31.19-.6.5-.64.31-.04.58.19.62.5.08.6.15,1.18.23,1.72.04.31-.17.6-.48.64h-.08c-.29,0-.52-.21-.56-.48ZM105.56,161.07s-.06.02-.1.02c-.27,0-.5-.19-.56-.46-.1-.56-.19-1.14-.29-1.74-.06-.31.15-.6.46-.64.31-.06.6.15.66.46.08.58.17,1.16.29,1.7.06.31-.15.6-.46.66Z"/>
  <path class="cls-2" d="M55.32,141.34c3.18-8.18,6.38-16.37,9.57-24.59.27-.68.54-1.35.81-2.04,1.23-3.16,2.47-6.34,3.7-9.53,6.88,2.82,13.71,5.59,20.58,8.41,4.24.02,8.5.17,12.73.42-.73-2.02-2.18-3.45-4.24-4.36-1.18-.52-2.43-.93-3.64-1.41-6.33-2.56-12.61-5.17-18.94-7.68-4.09-1.6-7.58.02-9.14,4.09-1.35,3.49-2.68,6.98-4.03,10.47-.27.69-.52,1.37-.79,2.06-2.68,6.94-5.36,13.9-8.04,20.85-.29.79-.6,1.56-.89,2.33-.06.14-.12.27-.15.41-1.25,3.26-2.53,6.52-3.78,9.76-.31.77-.62,1.56-.91,2.33-.69,1.79-1.41,3.61-2.1,5.4-.64,1.68-1.27,3.34-1.91,4.99-.35.96-.71,1.91-1.08,2.87-1.66,4.45-.12,7.87,4.17,9.87.4.19.83.37,1.23.54,3.7,1.54,7.39,3.07,11.09,4.63,3.43,1.47,6.87,2.97,10.32,4.4,2.37.98,4.65.52,6.46-1.21,1.14-1.08,2.04-2.47,2.8-3.86.67-1.23.98-2.66,1.5-3.97.42-1.06.83-2.14,1.25-3.2-.89-.06-1.77-.12-2.68-.15-.46,1.2-.93,2.39-1.41,3.59-3.09-1.29-6.15-2.6-9.22-3.9-1.5-.64-3.01-1.27-4.51-1.89-3.34-1.41-6.67-2.82-10.01-4.22-.27-.12-.54-.23-.81-.35-2.2-.93-4.4-1.85-6.61-2.78,1.6-4.09,3.18-8.16,4.76-12.23l3.93-10.07ZM82.4,106.23c2.66,1.02,5.3,2.08,7.93,3.14.31.14.56.42,1.06.81-.48.23-.73.46-.96.44-.4-.02-.81-.17-1.2-.33-2.43-.94-4.88-1.91-7.29-2.91-.31-.14-.48-.62-.71-.93.4-.08.87-.35,1.18-.23ZM57.83,172.99c.5-.73,1.33-1.2,2.28-1.2s1.72.44,2.22,1.12h.02c.33.46.52,1.02.52,1.64,0,1.52-1.23,2.76-2.76,2.76s-2.76-1.23-2.76-2.76c0-.58.19-1.12.48-1.56Z"/>
  <text class="cls-9" transform="translate(128.92 148.47)"><tspan class="cls-12" x="0" y="0">ti</tspan><tspan class="cls-4" x="19.81" y="0">c</tspan><tspan class="cls-11" x="36.69" y="0">k</tspan><tspan class="cls-12" x="55.07" y="0">-m</tspan></text>
  <text class="cls-1" transform="translate(128.92 161.72)"><tspan class="cls-3" x="0" y="0">E</tspan><tspan class="cls-5" x="10.21" y="0">V</tspan><tspan class="cls-6" x="20.68" y="0">EN</tspan><tspan class="cls-10" x="42.93" y="0">T</tspan><tspan class="cls-6" x="52.06" y="0">S</tspan></text>
</svg>