<?xml version="1.0" encoding="UTF-8"?>
<svg id="Layer_1" data-name="Layer 1" xmlns="http://www.w3.org/2000/svg" viewBox="0 0 283.46 283.46">
  <defs>
    <style>
      .cls-1 {
        fill: #f36b2a;
      }

      .cls-1, .cls-2, .cls-3 {
        stroke-width: 0px;
      }

      .cls-2 {
        fill: #2296d4;
      }

      .cls-3 {
        fill: #0c2e4e;
      }
    </style>
  </defs>
  <path class="cls-1" d="M142.81,208.73c1.54.14,3.14.27,4.68.41l.05-.05-4.73-.36Z"/>
  <path class="cls-2" d="M225.37,220.18c-.09.96-.27,2.03-1.02,2.62-.94.75-2.31.43-3.46.09-20.91-6.24-42.33-10.41-64-12.83-1.32-.15-2.65-.29-3.97-.42-1.62-.16-3.23-.32-4.85-.46-.19-.02-.38-.03-.57-.05-1.57-.14-3.13-.27-4.69-.38-.46-.04-.92-.07-1.38-.1-.48-.04-.96-.07-1.44-.1-.13-.01-.25-.02-.39-.03-.66-.04-1.32-.08-1.98-.12-.36-.02-.72-.04-1.08-.06h-.01c-1.57-.09-3.15-.17-4.73-.24-7.04-.33-14.07-.49-21.11-.54-3.28-1.38-6.55-2.76-9.82-4.14-2.59-1.1-10.32-4.36-16.41-6.92,1.99-.22,3.99-.42,5.99-.6,17.05-1.54,34.19-1.64,51.29-.87,2.09.1,4.18.2,6.28.32,1.77.1,3.55.21,5.32.33.95.06,1.9.13,2.85.2,2.02.14,4.04.3,6.06.46,8.96.72,17.91,1.62,26.83,2.62,9.99,1.12,20.47,1.62,30.26,4.02,1.65.41,3.4.93,4.49,2.24.92,1.12,1.19,2.63,1.37,4.07.45,3.61.51,7.27.17,10.89Z"/>
  <path class="cls-2" d="M233.32,156.89c-.86.09-1.73.14-2.59.14-12.54,0-22.76-10.18-22.76-22.72s9.31-21.86,21.13-22.72l-1.68-18.36c-.36-3.95-2.77-7.41-6.36-9.04-5.95-2.68-12.13-4.27-18.45-5.18-2.14-.32-4.32-.55-6.45-.73-.55-.05-1.09-.09-1.59-.14-.55,0-1.09-.05-1.68-.09-.55-.05-1.09-.05-1.64-.09-.45-.05-.86-.05-1.32-.09-3.73-.23-7.45-.41-11.18-.55-2.32-.09-4.63-.18-6.95-.23-1.32-.05-2.68-.09-4-.14-1.32,0-2.68-.05-4-.05-1.36-.05-2.68-.05-4-.05-10.68-.09-21.31.14-31.9.68-7.32.36-14.54.86-21.72,1.64l-23.45,60.2c-2.41,6.18-4.77,12.31-7.18,18.45,0,0-8.45,21.76-11.68,29.99,3.86,1.64,7.68,3.23,11.54,4.86.64.27,1.23.5,1.86.77.73.32,1.86.77,3.23,1.36,20.67-5.59,42.53-7.45,64.29-7.68h6.41c1.82,0,3.63,0,5.45.05,3.04.05,6.04.09,9.09.18,7.09.18,14.13.5,21.08.82,3.23.14,6.45.27,9.72.45-.14-.45-.23-.91-.36-1.36-.14-.73.32-1.45,1.04-1.59.68-.18,1.41.27,1.54,1,.18.73.36,1.45.5,2.14,8.91.45,17.77,1.09,26.58,2.04,0,0,10,1.09,9.45-12.18l-2-21.81ZM156.08,102.55l3.45-.5c.14,0,.23-.09.32-.23l1.54-3.09c.14-.32.59-.32.73,0l1.54,3.09c.05.14.18.23.32.23l3.45.5c.32.05.45.5.23.73l-2.5,2.41c-.09.09-.14.27-.14.41l.59,3.41c.09.32-.27.59-.59.45l-3.09-1.64c-.14-.05-.27-.05-.36,0l-3.09,1.64c-.32.14-.68-.14-.64-.45l.59-3.41c.05-.14,0-.32-.09-.41l-2.5-2.41c-.27-.23-.14-.68.23-.73ZM110.78,141.58l-.95.91s-.05.09-.05.14l.23,1.27c0,.14-.14.23-.23.18l-1.18-.64h-.14l-1.14.64c-.14.05-.27-.05-.23-.18l.23-1.27s-.05-.14-.05-.14l-.95-.91c-.09-.09-.05-.27.09-.27l1.27-.18q.09-.05.14-.09l.59-1.18c.05-.14.23-.14.27,0l.59,1.18s.05.05.09.09l1.32.18c.14,0,.18.18.09.27ZM144.99,171.25c0,.18-.18.32-.32.23l-1.54-.82h-.18l-1.54.82c-.18.09-.32-.05-.32-.23l.32-1.68c0-.09-.05-.14-.09-.18l-1.23-1.23c-.14-.14-.05-.32.09-.36l1.73-.23c.09-.05.14-.09.18-.14l.77-1.54c.05-.18.27-.18.36,0l.77,1.54.14.14,1.73.23c.18.05.23.23.14.36l-1.27,1.23s-.05.09-.05.18l.32,1.68ZM154.35,156.07l-13.5-7.09c-.5-.27-1.14-.27-1.68,0l-13.5,7.09c-1.36.73-2.91-.45-2.68-1.91l2.59-15.04c.09-.59-.09-1.23-.5-1.64l-10.95-10.63c-1.09-1.09-.5-2.91,1-3.14l15.13-2.18c.59-.09,1.09-.45,1.36-1l6.77-13.68c.64-1.36,2.59-1.36,3.27,0l6.72,13.68c.27.55.77.91,1.41,1l15.08,2.18c1.5.23,2.09,2.04,1,3.14l-10.91,10.63c-.45.41-.64,1.04-.55,1.64l2.59,15.04c.27,1.45-1.32,2.64-2.68,1.91ZM175.93,147.26l-2.5,2.41c-.09.09-.14.23-.09.36l.59,3.45c.05.32-.32.59-.64.41l-3.09-1.59c-.09-.09-.23-.09-.36,0l-3.09,1.59c-.32.18-.64-.09-.59-.41l.59-3.45c0-.14-.05-.27-.14-.36l-2.5-2.41c-.23-.27-.09-.68.23-.73l3.45-.5c.14,0,.27-.09.32-.23l1.54-3.09c.14-.32.59-.32.73,0l1.54,3.09c.09.14.18.23.32.23l3.45.5c.36.05.45.45.23.73ZM190.79,80.37c0-.73.59-1.27,1.32-1.27h.05c.73,0,1.32.59,1.27,1.32,0,1.23-.05,2.59-.05,4.13-.05.73-.64,1.27-1.36,1.27s-1.32-.59-1.32-1.32c.05-1.54.05-2.91.09-4.13ZM190.65,88.6c0-.73.59-1.32,1.32-1.32.73.05,1.32.64,1.32,1.36,0,1.32-.05,2.68-.05,4.09,0,.73-.59,1.32-1.32,1.32h-.05c-.73,0-1.32-.59-1.27-1.32,0-1.45,0-2.82.05-4.13ZM190.56,96.82c0-.73.59-1.32,1.32-1.32s1.32.59,1.32,1.36v4.09c0,.73-.59,1.32-1.32,1.32-.77,0-1.36-.59-1.36-1.32.05-1.41.05-2.77.05-4.13ZM191.88,103.73c.73,0,1.32.59,1.32,1.32v4.13c0,.73-.59,1.32-1.32,1.32s-1.32-.59-1.32-1.32c0-1.41-.05-2.77-.05-4.13,0-.73.59-1.32,1.36-1.32ZM190.56,113.32c0-.73.59-1.36,1.32-1.36h.05c.73,0,1.32.59,1.32,1.32,0,1.36,0,2.73.05,4.09,0,.77-.59,1.36-1.32,1.36s-1.32-.59-1.36-1.32c0-1.36,0-2.77-.05-4.09ZM190.7,121.54c0-.73.55-1.36,1.32-1.36.68-.05,1.32.59,1.32,1.32.05,1.36.05,2.73.09,4.09.05.73-.55,1.36-1.27,1.36h-.05c-.73,0-1.32-.59-1.32-1.27-.05-1.41-.05-2.77-.09-4.13ZM190.88,129.76c0-.73.55-1.32,1.32-1.36.73,0,1.32.59,1.32,1.27.05,1.36.09,2.73.14,4.13.05.73-.55,1.32-1.27,1.36h-.05c-.73,0-1.27-.59-1.32-1.27-.05-1.41-.09-2.77-.14-4.13ZM191.15,137.99c0-.73.55-1.36,1.27-1.36h.09c.68,0,1.27.55,1.32,1.27.05,1.36.09,2.73.18,4.09,0,.73-.55,1.36-1.27,1.41h-.09c-.68,0-1.27-.59-1.32-1.27-.05-1.36-.14-2.77-.18-4.13ZM191.56,146.26c-.05-.77.5-1.36,1.23-1.41.73-.05,1.36.5,1.41,1.23.09,1.41.14,2.77.23,4.09.05.77-.5,1.36-1.23,1.41h-.09c-.68,0-1.27-.5-1.32-1.23-.09-1.36-.18-2.73-.23-4.09ZM192.06,154.48c-.05-.73.5-1.36,1.23-1.41.73-.09,1.36.45,1.41,1.23.09,1.36.18,2.73.32,4.09.05.73-.5,1.36-1.23,1.41h-.09c-.68,0-1.27-.5-1.32-1.23-.14-1.36-.23-2.73-.32-4.09ZM192.7,162.71c-.05-.73.5-1.41,1.23-1.45.73-.05,1.36.45,1.45,1.18.09,1.41.23,2.77.36,4.09.09.73-.45,1.36-1.18,1.45h-.14c-.64,0-1.23-.5-1.32-1.18-.14-1.36-.27-2.73-.41-4.09ZM194.11,175.02c-.18-1.32-.36-2.68-.55-4.09-.09-.73.45-1.41,1.18-1.5.73-.09,1.36.45,1.45,1.18.18,1.41.36,2.77.55,4.04.09.73-.41,1.41-1.14,1.5h-.18c-.68,0-1.23-.5-1.32-1.14ZM196.92,184.24s-.14.05-.23.05c-.64,0-1.18-.45-1.32-1.09-.23-1.32-.45-2.68-.68-4.09-.14-.73.36-1.41,1.09-1.5.73-.14,1.41.36,1.54,1.09.18,1.36.41,2.73.68,4,.14.73-.36,1.41-1.09,1.54Z"/>
  <path class="cls-3" d="M78.56,137.76c7.5-19.27,15.04-38.58,22.54-57.93.64-1.59,1.27-3.18,1.91-4.82,2.91-7.45,5.82-14.95,8.72-22.45,16.22,6.63,32.31,13.18,48.48,19.81,10,.05,20.04.41,29.99,1-1.73-4.77-5.13-8.13-10-10.27-2.77-1.23-5.72-2.18-8.59-3.32-14.9-6.04-29.72-12.18-44.62-18.08-9.63-3.77-17.86.05-21.54,9.63-3.18,8.22-6.32,16.45-9.5,24.67-.64,1.64-1.23,3.23-1.86,4.86-6.32,16.36-12.63,32.76-18.95,49.12-.68,1.86-1.41,3.68-2.09,5.5-.14.32-.27.64-.36.95-2.95,7.68-5.95,15.36-8.91,22.99-.73,1.82-1.45,3.68-2.14,5.5-1.64,4.23-3.32,8.5-4.95,12.72-1.5,3.95-3,7.86-4.5,11.77-.82,2.27-1.68,4.5-2.54,6.77-3.91,10.5-.27,18.54,9.81,23.26.95.45,1.95.86,2.91,1.27,8.72,3.63,17.4,7.22,26.13,10.9,8.09,3.45,16.18,7,24.31,10.36,5.59,2.32,10.95,1.23,15.22-2.86,2.68-2.54,4.82-5.82,6.59-9.09,1.59-2.91,2.32-6.27,3.54-9.36,1-2.5,1.95-5.04,2.95-7.54-2.09-.14-4.18-.27-6.32-.36-1.09,2.82-2.18,5.63-3.32,8.45-7.27-3.04-14.49-6.13-21.72-9.18-3.54-1.5-7.09-3-10.63-4.45-7.86-3.32-15.72-6.63-23.58-9.95-.64-.27-1.27-.55-1.91-.82-5.18-2.18-10.36-4.36-15.58-6.54,3.77-9.63,7.5-19.22,11.22-28.81l9.27-23.72ZM142.35,55.02c6.27,2.41,12.5,4.91,18.67,7.41.73.32,1.32,1,2.5,1.91-1.14.55-1.73,1.09-2.27,1.05-.95-.05-1.91-.41-2.82-.77-5.73-2.23-11.5-4.5-17.18-6.86-.73-.32-1.14-1.45-1.68-2.18.95-.18,2.04-.82,2.77-.55ZM84.47,212.32c1.18-1.73,3.14-2.82,5.36-2.82s4.04,1.05,5.23,2.64h.05c.77,1.09,1.23,2.41,1.23,3.86,0,3.59-2.91,6.5-6.5,6.5s-6.5-2.91-6.5-6.5c0-1.36.45-2.64,1.14-3.68Z"/>
</svg>