<svg width="22" height="24" viewBox="0 0 22 24" fill="none" xmlns="http://www.w3.org/2000/svg">
<path fill-rule="evenodd" clip-rule="evenodd" d="M12.1667 22.5007C12.1667 23.1458 12.6882 23.6673 13.3333 23.6673H16.8333C18.0712 23.6673 19.2577 23.1761 20.1327 22.3011C21.0077 21.4261 21.5 20.2385 21.5 19.0007C21.5 18.331 21.5 17.834 21.5 17.834C21.5 17.19 20.9773 16.6673 20.3333 16.6673H13.3333C12.6882 16.6673 12.1667 17.19 12.1667 17.834V22.5007ZM8.66667 23.6673C9.31067 23.6673 9.83333 23.1458 9.83333 22.5007V10.834C9.83333 10.19 9.31067 9.66732 8.66667 9.66732H1.66667C1.0215 9.66732 0.5 10.19 0.5 10.834V19.0007C0.5 20.2385 0.991164 21.4261 1.86616 22.3011C2.74116 23.1761 3.92883 23.6673 5.16667 23.6673H8.66667ZM19.1667 19.0007H14.5V21.334H16.8333C17.4517 21.334 18.0455 21.089 18.483 20.6515C18.9205 20.214 19.1667 19.6202 19.1667 19.0007ZM7.5 21.334V12.0007H2.83333V19.0007C2.83333 19.6202 3.07833 20.214 3.517 20.6515C3.9545 21.089 4.54717 21.334 5.16667 21.334H7.5ZM13.3333 0.333984C12.6882 0.333984 12.1667 0.856651 12.1667 1.50065V13.1673C12.1667 13.8125 12.6882 14.334 13.3333 14.334H20.3333C20.9773 14.334 21.5 13.8125 21.5 13.1673V5.00065C21.5 3.76398 21.0077 2.57631 20.1327 1.70131C19.2577 0.826314 18.0712 0.333984 16.8333 0.333984H13.3333ZM14.5 2.66732V12.0007H19.1667V5.00065C19.1667 4.38232 18.9205 3.78848 18.483 3.35098C18.0455 2.91348 17.4517 2.66732 16.8333 2.66732H14.5ZM9.83333 1.50065C9.83333 0.856651 9.31067 0.333984 8.66667 0.333984H5.16667C3.92883 0.333984 2.74116 0.826314 1.86616 1.70131C0.991164 2.57631 0.5 3.76398 0.5 5.00065V6.16732C0.5 6.81248 1.0215 7.33398 1.66667 7.33398H8.66667C9.31067 7.33398 9.83333 6.81248 9.83333 6.16732V1.50065ZM7.5 2.66732H5.16667C4.54717 2.66732 3.9545 2.91348 3.517 3.35098C3.07833 3.78848 2.83333 4.38232 2.83333 5.00065H7.5V2.66732Z" fill="#2395D4"/>
</svg>
