<svg width="28" height="28" viewBox="0 0 28 28" fill="none" xmlns="http://www.w3.org/2000/svg">
<path fill-rule="evenodd" clip-rule="evenodd" d="M25.6663 9.33398C25.6663 7.71232 24.782 6.17582 23.1767 4.96015C21.1047 3.38982 17.7703 2.33398 13.9997 2.33398C10.229 2.33398 6.89467 3.38982 4.82267 4.96015C3.21734 6.17582 2.33301 7.71232 2.33301 9.33398V18.6673C2.33301 20.289 3.21734 21.8255 4.82267 23.0412C6.89467 24.6115 10.229 25.6673 13.9997 25.6673C17.7703 25.6673 21.1047 24.6115 23.1767 23.0412C24.782 21.8255 25.6663 20.289 25.6663 18.6673V9.33398ZM13.7022 4.66965C10.6397 4.71982 7.92718 5.53532 6.23084 6.81982C5.28701 7.53498 4.66634 8.37965 4.66634 9.33398V18.6673C4.66634 19.6217 5.28701 20.4663 6.23084 21.1815C7.98201 22.508 10.8158 23.334 13.9997 23.334C17.1835 23.334 20.0173 22.508 21.7685 21.1815C22.7123 20.4663 23.333 19.6217 23.333 18.6673V9.33398C23.333 8.37965 22.7123 7.53498 21.7685 6.81982C20.0173 5.49332 17.1835 4.66732 13.9997 4.66732L13.7022 4.66965ZM12.4655 15.3248L14.0347 9.05048C14.1525 8.57682 14.5538 8.22798 15.0392 8.17432C15.5245 8.12065 15.9912 8.37498 16.2093 8.81248L18.2207 12.834H19.833C20.477 12.834 20.9997 13.3567 20.9997 14.0007C20.9997 14.6447 20.477 15.1673 19.833 15.1673H17.4997C17.0575 15.1673 16.6538 14.9177 16.4567 14.5222L15.5338 12.6765L13.9647 18.9508C13.8468 19.4245 13.4455 19.7733 12.9602 19.827C12.4748 19.8807 12.0082 19.6263 11.79 19.1888L9.77868 15.1673H8.16634C7.52234 15.1673 6.99967 14.6447 6.99967 14.0007C6.99967 13.3567 7.52234 12.834 8.16634 12.834H10.4997C10.9418 12.834 11.3455 13.0837 11.5427 13.4792L12.4655 15.3248Z" fill="#3CB1F1"/>
</svg>
