<svg width="28" height="28" viewBox="0 0 28 28" fill="none" xmlns="http://www.w3.org/2000/svg">
<path fill-rule="evenodd" clip-rule="evenodd" d="M17.5 4.66732V3.50065C17.5 2.85665 18.0227 2.33398 18.6667 2.33398C19.3107 2.33398 19.8333 2.85665 19.8333 3.50065V4.66732C22.4105 4.66732 24.5 6.75682 24.5 9.33398V21.0007C24.5 23.5778 22.4105 25.6673 19.8333 25.6673C16.4967 25.6673 11.5022 25.6673 8.16667 25.6673C5.5895 25.6673 3.5 23.5778 3.5 21.0007V9.33398C3.5 6.75682 5.5895 4.66732 8.16667 4.66732V3.50065C8.16667 2.85665 8.68933 2.33398 9.33333 2.33398C9.97733 2.33398 10.5 2.85665 10.5 3.50065V4.66732H17.5ZM22.1667 14.0007H5.83333V21.0007C5.83333 22.2887 6.8775 23.334 8.16667 23.334H19.8333C21.1213 23.334 22.1667 22.2887 22.1667 21.0007V14.0007ZM19.8333 7.00065V8.16732C19.8333 8.81132 19.3107 9.33398 18.6667 9.33398C18.0227 9.33398 17.5 8.81132 17.5 8.16732V7.00065H10.5V8.16732C10.5 8.81132 9.97733 9.33398 9.33333 9.33398C8.68933 9.33398 8.16667 8.81132 8.16667 8.16732V7.00065C6.8775 7.00065 5.83333 8.04482 5.83333 9.33398V11.6673H22.1667V9.33398C22.1667 8.04482 21.1213 7.00065 19.8333 7.00065Z" fill="#3CB1F1"/>
</svg>
