<svg xmlns="http://www.w3.org/2000/svg" width="28" height="28" viewBox="0 0 28 28" fill="none">
<path fill-rule="evenodd" clip-rule="evenodd" d="M25.6654 9.33594C25.6654 7.71427 24.781 6.17777 23.1757 4.9621C21.1037 3.39177 17.7694 2.33594 13.9987 2.33594C10.228 2.33594 6.8937 3.39177 4.8217 4.9621C3.21636 6.17777 2.33203 7.71427 2.33203 9.33594V18.6693C2.33203 20.2909 3.21636 21.8274 4.8217 23.0431C6.8937 24.6134 10.228 25.6693 13.9987 25.6693C17.7694 25.6693 21.1037 24.6134 23.1757 23.0431C24.781 21.8274 25.6654 20.2909 25.6654 18.6693V9.33594ZM13.7012 4.6716C10.6387 4.72177 7.9262 5.53727 6.22986 6.82177C5.28603 7.53694 4.66536 8.3816 4.66536 9.33594V18.6693C4.66536 19.6236 5.28603 20.4683 6.22986 21.1834C7.98103 22.5099 10.8149 23.3359 13.9987 23.3359C17.1825 23.3359 20.0164 22.5099 21.7675 21.1834C22.7114 20.4683 23.332 19.6236 23.332 18.6693V9.33594C23.332 8.3816 22.7114 7.53694 21.7675 6.82177C20.0164 5.49527 17.1825 4.66927 13.9987 4.66927L13.7012 4.6716ZM12.4645 15.3268L14.0337 9.05244C14.1515 8.57877 14.5529 8.22994 15.0382 8.17627C15.5235 8.1226 15.9902 8.37694 16.2084 8.81444L18.2197 12.8359H19.832C20.476 12.8359 20.9987 13.3586 20.9987 14.0026C20.9987 14.6466 20.476 15.1693 19.832 15.1693H17.4987C17.0565 15.1693 16.6529 14.9196 16.4557 14.5241L15.5329 12.6784L13.9637 18.9528C13.8459 19.4264 13.4445 19.7753 12.9592 19.8289C12.4739 19.8826 12.0072 19.6283 11.789 19.1908L9.7777 15.1693H8.16537C7.52137 15.1693 6.9987 14.6466 6.9987 14.0026C6.9987 13.3586 7.52137 12.8359 8.16537 12.8359H10.4987C10.9409 12.8359 11.3445 13.0856 11.5417 13.4811L12.4645 15.3268Z" fill="#3CB1F1"/>
</svg>