<svg width="28" height="28" viewBox="0 0 28 28" fill="none" xmlns="http://www.w3.org/2000/svg">
<path fill-rule="evenodd" clip-rule="evenodd" d="M10.0622 4.49581C10.8905 3.19615 12.3442 2.33398 13.9997 2.33398C15.6552 2.33398 17.1088 3.19615 17.9372 4.49581C19.441 4.16215 21.079 4.58099 22.2492 5.75115C23.4193 6.92249 23.8382 8.55931 23.5045 10.0643C24.8042 10.8926 25.6663 12.3463 25.6663 14.0007C25.6663 15.6562 24.8042 17.1098 23.5045 17.9382C23.8382 19.4432 23.4193 21.08 22.2492 22.2502C21.079 23.4215 19.441 23.8391 17.9372 23.5066C17.1088 24.8063 15.6552 25.6673 13.9997 25.6673C12.3442 25.6673 10.8905 24.8063 10.0622 23.5066C8.55718 23.8391 6.92034 23.4215 5.75018 22.2502C4.58001 21.08 4.16118 19.4432 4.49368 17.9382C3.19518 17.1098 2.33301 15.6562 2.33301 14.0007C2.33301 12.3463 3.19518 10.8926 4.49368 10.0643C4.16118 8.55931 4.58001 6.92249 5.75018 5.75115C6.92034 4.58099 8.55718 4.16215 10.0622 4.49581ZM10.124 6.97965C10.4297 7.13831 10.7902 7.15347 11.1087 7.02164C11.4272 6.88981 11.671 6.62381 11.7748 6.29598C12.0735 5.35215 12.9567 4.66732 13.9997 4.66732C15.0427 4.66732 15.9259 5.35215 16.2245 6.29598C16.3284 6.62381 16.5722 6.88981 16.8907 7.02164C17.2092 7.15347 17.5685 7.13831 17.8742 6.97965C18.7538 6.52348 19.8622 6.66348 20.5995 7.40198C21.3369 8.13931 21.478 9.24765 21.0219 10.1262C20.8632 10.4318 20.8469 10.7923 20.9787 11.1097C21.1105 11.4282 21.3765 11.672 21.7043 11.7758C22.6493 12.0745 23.333 12.9577 23.333 14.0007C23.333 15.0437 22.6493 15.928 21.7043 16.2266C21.3765 16.3305 21.1105 16.5743 20.9787 16.8916C20.8469 17.2101 20.8632 17.5706 21.0219 17.8763C21.478 18.7548 21.3369 19.8631 20.5995 20.6005C19.8622 21.3378 18.7538 21.479 17.8742 21.0228C17.5685 20.8641 17.2092 20.849 16.8907 20.9808C16.5722 21.1127 16.3284 21.3786 16.2245 21.7065C15.9259 22.6503 15.0427 23.334 13.9997 23.334C12.9567 23.334 12.0735 22.6503 11.7748 21.7065C11.671 21.3786 11.4272 21.1127 11.1087 20.9808C10.7902 20.849 10.4297 20.8641 10.124 21.0228C9.24552 21.479 8.13718 21.3378 7.39984 20.6005C6.66251 19.8631 6.52134 18.7548 6.97751 17.8763C7.13618 17.5706 7.15135 17.2101 7.02068 16.8916C6.88885 16.5743 6.62285 16.3305 6.29385 16.2266C5.35001 15.928 4.66634 15.0437 4.66634 14.0007C4.66634 12.9577 5.35001 12.0745 6.29385 11.7758C6.62285 11.672 6.88885 11.4282 7.02068 11.1097C7.15135 10.7923 7.13618 10.4318 6.97751 10.1262C6.52134 9.24765 6.66251 8.13931 7.39984 7.40198C8.13718 6.66348 9.24552 6.52348 10.124 6.97965ZM13.9997 9.33398C11.4237 9.33398 9.33301 11.4258 9.33301 14.0007C9.33301 16.5767 11.4237 18.6673 13.9997 18.6673C16.5757 18.6673 18.6663 16.5767 18.6663 14.0007C18.6663 11.4258 16.5757 9.33398 13.9997 9.33398ZM13.9997 11.6673C15.2877 11.6673 16.333 12.7138 16.333 14.0007C16.333 15.2887 15.2877 16.334 13.9997 16.334C12.7117 16.334 11.6663 15.2887 11.6663 14.0007C11.6663 12.7138 12.7117 11.6673 13.9997 11.6673Z" fill="#3CB1F1"/>
</svg>
