<svg width="28" height="28" viewBox="0 0 28 28" fill="none" xmlns="http://www.w3.org/2000/svg">
<path d="M11.9047 5.18361L0.55652 16.5317C0.281941 16.8063 0.281941 17.2515 0.55652 17.5261L3.2496 20.2192C3.44529 20.4149 3.73754 20.4776 3.99631 20.3794C5.02939 19.9872 6.20115 20.2381 6.98147 21.0184C7.76178 21.7987 8.01263 22.9705 7.62052 24.0036C7.52227 24.2623 7.58498 24.5546 7.78068 24.7503L10.4738 27.4434C10.7484 27.718 11.1936 27.718 11.4682 27.4434L22.8163 16.0953L11.9047 5.18361Z" fill="#2395D4"/>
<path d="M27.4444 10.4728L24.7513 7.77973C24.5556 7.58404 24.2633 7.52133 24.0046 7.61957C22.9715 8.01168 21.7998 7.76081 21.0194 6.98049C20.2391 6.20018 19.9883 5.02841 20.3804 3.99533C20.4786 3.7366 20.4159 3.44432 20.2202 3.24863L17.5271 0.555543C17.2525 0.280965 16.8073 0.280965 16.5327 0.555543L12.899 4.18923L23.8107 15.1009L27.4444 11.4672C27.719 11.1926 27.719 10.7474 27.4444 10.4728Z" fill="#2395D4"/>
</svg>
