<svg width="26" height="20" viewBox="0 0 26 20" fill="none" xmlns="http://www.w3.org/2000/svg">
<path d="M24.7419 2.5C24.0471 2.5 23.4839 1.94036 23.4839 1.25C23.4839 0.559644 24.0471 -8.53629e-08 24.7419 -5.49917e-08C25.4367 -2.46206e-08 26 0.559644 26 1.25C26 1.94036 25.4367 2.5 24.7419 2.5Z" fill="white" fill-opacity="0.6"/>
<path d="M24.7419 8.33333C24.0471 8.33333 23.4839 7.77369 23.4839 7.08333C23.4839 6.39298 24.0471 5.83333 24.7419 5.83333C25.4367 5.83333 26 6.39298 26 7.08333C26 7.77369 25.4367 8.33333 24.7419 8.33333Z" fill="white" fill-opacity="0.6"/>
<path d="M24.7419 14.1667C24.0471 14.1667 23.4839 13.607 23.4839 12.9167C23.4839 12.2263 24.0471 11.6667 24.7419 11.6667C25.4367 11.6667 26 12.2263 26 12.9167C26 13.607 25.4367 14.1667 24.7419 14.1667Z" fill="white" fill-opacity="0.6"/>
<path d="M24.7419 20C24.0471 20 23.4839 19.4404 23.4839 18.75C23.4839 18.0596 24.0471 17.5 24.7419 17.5C25.4367 17.5 26 18.0596 26 18.75C26 19.4404 25.4367 20 24.7419 20Z" fill="white" fill-opacity="0.6"/>
<path d="M18.871 2.5C18.1762 2.5 17.6129 1.94036 17.6129 1.25C17.6129 0.559644 18.1762 -3.41991e-07 18.871 -3.1162e-07C19.5658 -2.81249e-07 20.129 0.559644 20.129 1.25C20.129 1.94036 19.5658 2.5 18.871 2.5Z" fill="white" fill-opacity="0.6"/>
<path d="M18.871 8.33333C18.1762 8.33333 17.6129 7.77369 17.6129 7.08333C17.6129 6.39298 18.1762 5.83333 18.871 5.83333C19.5658 5.83333 20.129 6.39298 20.129 7.08333C20.129 7.77369 19.5658 8.33333 18.871 8.33333Z" fill="white" fill-opacity="0.6"/>
<path d="M18.871 14.1667C18.1762 14.1667 17.6129 13.607 17.6129 12.9167C17.6129 12.2263 18.1762 11.6667 18.871 11.6667C19.5658 11.6667 20.129 12.2263 20.129 12.9167C20.129 13.607 19.5658 14.1667 18.871 14.1667Z" fill="white" fill-opacity="0.6"/>
<path d="M18.871 20C18.1762 20 17.6129 19.4404 17.6129 18.75C17.6129 18.0596 18.1762 17.5 18.871 17.5C19.5658 17.5 20.129 18.0596 20.129 18.75C20.129 19.4404 19.5658 20 18.871 20Z" fill="white" fill-opacity="0.6"/>
<path d="M13 2.5C12.3052 2.5 11.7419 1.94036 11.7419 1.25C11.7419 0.559643 12.3052 -5.98619e-07 13 -5.68248e-07C13.6948 -5.37877e-07 14.2581 0.559644 14.2581 1.25C14.2581 1.94036 13.6948 2.5 13 2.5Z" fill="white" fill-opacity="0.6"/>
<path d="M13 8.33333C12.3052 8.33333 11.7419 7.77369 11.7419 7.08333C11.7419 6.39298 12.3052 5.83333 13 5.83333C13.6948 5.83333 14.2581 6.39298 14.2581 7.08333C14.2581 7.77369 13.6948 8.33333 13 8.33333Z" fill="white" fill-opacity="0.6"/>
<path d="M13 14.1667C12.3052 14.1667 11.7419 13.607 11.7419 12.9167C11.7419 12.2263 12.3052 11.6667 13 11.6667C13.6948 11.6667 14.2581 12.2263 14.2581 12.9167C14.2581 13.607 13.6948 14.1667 13 14.1667Z" fill="white" fill-opacity="0.6"/>
<path d="M13 20C12.3052 20 11.7419 19.4404 11.7419 18.75C11.7419 18.0596 12.3052 17.5 13 17.5C13.6948 17.5 14.2581 18.0596 14.2581 18.75C14.2581 19.4404 13.6948 20 13 20Z" fill="white" fill-opacity="0.6"/>
<path d="M7.12903 2.5C6.43422 2.5 5.87097 1.94036 5.87097 1.25C5.87097 0.559643 6.43422 -8.55247e-07 7.12903 -8.24876e-07C7.82384 -7.94505e-07 8.3871 0.559643 8.3871 1.25C8.3871 1.94036 7.82384 2.5 7.12903 2.5Z" fill="white" fill-opacity="0.6"/>
<path d="M7.12903 8.33333C6.43422 8.33333 5.87097 7.77369 5.87097 7.08333C5.87097 6.39298 6.43422 5.83333 7.12903 5.83333C7.82384 5.83333 8.3871 6.39298 8.3871 7.08333C8.3871 7.77369 7.82384 8.33333 7.12903 8.33333Z" fill="white" fill-opacity="0.6"/>
<path d="M7.12903 14.1667C6.43422 14.1667 5.87097 13.607 5.87097 12.9167C5.87097 12.2263 6.43422 11.6667 7.12903 11.6667C7.82384 11.6667 8.3871 12.2263 8.3871 12.9167C8.3871 13.607 7.82384 14.1667 7.12903 14.1667Z" fill="white" fill-opacity="0.6"/>
<path d="M7.12903 20C6.43422 20 5.87097 19.4404 5.87097 18.75C5.87097 18.0596 6.43422 17.5 7.12903 17.5C7.82384 17.5 8.3871 18.0596 8.3871 18.75C8.3871 19.4404 7.82384 20 7.12903 20Z" fill="white" fill-opacity="0.6"/>
<path d="M1.25806 2.5C0.563253 2.5 -8.48157e-08 1.94035 -5.46392e-08 1.25C-2.44628e-08 0.559643 0.563253 -1.11188e-06 1.25806 -1.0815e-06C1.95287 -1.05113e-06 2.51613 0.559643 2.51613 1.25C2.51613 1.94036 1.95287 2.5 1.25806 2.5Z" fill="white" fill-opacity="0.6"/>
<path d="M1.25806 8.33333C0.563253 8.33333 -3.39799e-07 7.77369 -3.09622e-07 7.08333C-2.79446e-07 6.39298 0.563253 5.83333 1.25806 5.83333C1.95287 5.83333 2.51613 6.39298 2.51613 7.08333C2.51613 7.77369 1.95287 8.33333 1.25806 8.33333Z" fill="white" fill-opacity="0.6"/>
<path d="M1.25806 14.1667C0.563253 14.1667 -5.94782e-07 13.607 -5.64606e-07 12.9167C-5.34429e-07 12.2263 0.563253 11.6667 1.25806 11.6667C1.95287 11.6667 2.51613 12.2263 2.51613 12.9167C2.51613 13.607 1.95287 14.1667 1.25806 14.1667Z" fill="white" fill-opacity="0.6"/>
<path d="M1.25806 20C0.563253 20 -8.49765e-07 19.4404 -8.19589e-07 18.75C-7.89412e-07 18.0596 0.563253 17.5 1.25806 17.5C1.95287 17.5 2.51613 18.0596 2.51613 18.75C2.51613 19.4404 1.95287 20 1.25806 20Z" fill="white" fill-opacity="0.6"/>
</svg>
