<svg width="26" height="17" viewBox="0 0 26 17" fill="none" xmlns="http://www.w3.org/2000/svg">
<path d="M1 16.3315L3.69765 11.6981C4.06715 11.0634 4.97186 11.0302 5.38687 11.6361L7.73384 15.0626C8.14268 15.6595 9.03046 15.6381 9.41012 15.0222L11.4505 11.7124C11.8411 11.0787 12.7624 11.0787 13.153 11.7124L15.2658 15.1397C15.6259 15.7238 16.4539 15.78 16.8896 15.2499L20.0827 11.365C20.5069 10.849 21.3081 10.8859 21.6829 11.4389L25 16.3315M1 6.33151L3.69765 1.69807C4.06715 1.06341 4.97186 1.03023 5.38687 1.63612L7.73384 5.06259C8.14268 5.65947 9.03046 5.63811 9.41012 5.02225L11.4505 1.71238C11.8411 1.07873 12.7624 1.07873 13.153 1.71238L15.2658 5.13966C15.6259 5.72378 16.4539 5.77998 16.8896 5.24988L20.0827 1.36503C20.5069 0.848972 21.3081 0.885933 21.6829 1.43886L25 6.33151" stroke="#F2FAF8" stroke-width="2"/>
</svg>
